<svg xmlns="http://www.w3.org/2000/svg" xmlns:xlink="http://www.w3.org/1999/xlink" x="0px" y="0px" viewBox="0 0 20 20" height="16px" xml:space="preserve">
      <g class="hover-fill" fill="#ffffff">
        <path d="M19.8,19.1l-4.6-4.6c1.4-1.5,2.2-3.6,2.2-5.8c0-4.8-3.9-8.7-8.7-8.7S0,3.9,0,8.7s3.9,8.7,8.7,8.7
        c2.2,0,4.2-0.8,5.8-2.2l4.6,4.6c0.2,0.2,0.5,0.2,0.7,0C20.1,19.6,20.1,19.3,19.8,19.1z M1,8.7C1,4.5,4.5,1,8.7,1
        c4.2,0,7.7,3.4,7.7,7.7c0,4.2-3.4,7.7-7.7,7.7C4.5,16.4,1,13,1,8.7z"></path>
      </g>
    </svg>