<svg version="1.1" xmlns="http://www.w3.org/2000/svg" xmlns:xlink="http://www.w3.org/1999/xlink" x="0px" y="0px" viewBox="0 0 22 20" height="16px" xml:space="preserve">
  <g fill="#ffffff">
    <path d="M21.9,4.2C21.8,4.1,21.6,4,21.5,4H15c0-2.2-1.8-4-4-4C8.8,0,7,1.8,7,4v2.2C6.7,6.3,6.5,6.6,6.5,7c0,0.6,0.4,1,1,1s1-0.4,1-1
    c0-0.4-0.2-0.7-0.5-0.8V5h5V4H8c0-1.7,1.3-3,3-3s3,1.3,3,3v2.2c-0.3,0.2-0.5,0.5-0.5,0.8c0,0.6,0.4,1,1,1s1-0.4,1-1
    c0-0.4-0.2-0.7-0.5-0.8V5h5.9l-2.3,13.6c0,0.2-0.2,0.4-0.5,0.4H3.8c-0.2,0-0.5-0.2-0.5-0.4L1.1,5H6V4H0.5C0.4,4,0.2,4.1,0.1,4.2
    C0,4.3,0,4.4,0,4.6l2.4,14.2C2.5,19.5,3.1,20,3.8,20h14.3c0.7,0,1.4-0.5,1.5-1.3L22,4.6C22,4.4,22,4.3,21.9,4.2z"></path>
  </g>
</svg>